PathFileType	4	(X/Y/Z)	C:\Users\Basilio\Documents\Thesis Gigler\squatting_fais\c3dfiles\058\SLS_front_pre3\markers_experimental.trc
DataRate	CameraRate	NumFrames	NumMarkers	Units	OrigDataRate	OrigDataStartFrame	OrigNumFrames
200.000000	200.000000	4	61	mm	200.000000	315	1263
Frame#	Time	FHD			LBHD			RBHD			C7			T10			CLAV			LSHO			LUUPA			LMUPA			LDUPA			LLEP			LMEP			LRAD			LUL			LRFIN			RSHO			RUPA1			RMUPA			RDUPA			RLEP			RMEP			RRAD			RUL			RUFIN			LASI			RASI			USACR			LSACR			RSACR			LTHI1			LTHI2			LTHI3			LTHI4			LLFC			LMFC			LTIB1			LTIB2			LTIB3			LTIB4			LLMAL			LMMAL			LHEE			LMT1			LMT2			LMT5			RTHI			RTHI2			RTHI3			RTHI4			RLFC			RMFC			RTIB1			RTIB2			RTIB3			RTIB4			RLMAL			RMMAL			RHEE			RMT1			RMT2			RMT5			
		X1	Y1	Z1	X2	Y2	Z2	X3	Y3	Z3	X4	Y4	Z4	X5	Y5	Z5	X6	Y6	Z6	X7	Y7	Z7	X8	Y8	Z8	X9	Y9	Z9	X10	Y10	Z10	X11	Y11	Z11	X12	Y12	Z12	X13	Y13	Z13	X14	Y14	Z14	X15	Y15	Z15	X16	Y16	Z16	X17	Y17	Z17	X18	Y18	Z18	X19	Y19	Z19	X20	Y20	Z20	X21	Y21	Z21	X22	Y22	Z22	X23	Y23	Z23	X24	Y24	Z24	X25	Y25	Z25	X26	Y26	Z26	X27	Y27	Z27	X28	Y28	Z28	X29	Y29	Z29	X30	Y30	Z30	X31	Y31	Z31	X32	Y32	Z32	X33	Y33	Z33	X34	Y34	Z34	X35	Y35	Z35	X36	Y36	Z36	X37	Y37	Z37	X38	Y38	Z38	X39	Y39	Z39	X40	Y40	Z40	X41	Y41	Z41	X42	Y42	Z42	X43	Y43	Z43	X44	Y44	Z44	X45	Y45	Z45	X46	Y46	Z46	X47	Y47	Z47	X48	Y48	Z48	X49	Y49	Z49	X50	Y50	Z50	X51	Y51	Z51	X52	Y52	Z52	X53	Y53	Z53	X54	Y54	Z54	X55	Y55	Z55	X56	Y56	Z56	X57	Y57	Z57	X58	Y58	Z58	X59	Y59	Z59	X60	Y60	Z60	X61	Y61	Z61	

316	1.575	-328.1917114257813	1804.146728515625	-628.0310058593751	-481.3572082519532	1739.254638671875	-697.2263183593751	-321.6391296386719	1813.55322265625	-770.1392211914065	-490.7300109863282	1594.998901367188	-717.4066772460939	-501.4524841308595	1283.101684570313	-710.4593505859376	-325.6965942382813	1556.474853515625	-701.7510375976564	-338.6562194824219	1608.662719726563	-855.453308105469	-187.7943420410157	1530.792236328125	-966.268005371094	-160.942626953125	1566.344360351563	-942.3553466796877	-118.3887710571289	1527.43359375	-959.047302246094	-43.79425430297852	1527.624267578125	-943.9046630859377	-42.59384155273438	1472.315307617188	-907.9592895507815	nan	nan	nan	225.6463012695313	1545.888427734375	-923.6043090820315	323.9221801757813	1545.480346679688	-846.2769165039065	-355.6292419433594	1607.148681640625	-547.5264892578126	-203.8572082519532	1512.95458984375	-435.5937805175782	-178.0079803466797	1550.3359375	-458.819061279297	-134.1617584228516	1519.212280273438	-434.4949340820314	-66.76331329345705	1508.0263671875	-440.3245239257814	-59.83665466308595	1448.60888671875	-490.0112304687501	204.9620361328126	1529.41162109375	-525.6657714843751	203.1851959228516	1541.943603515625	-444.7113647460939	297.1562500000001	1553.717407226563	-511.2672729492189	-314.1333312988282	1114.412841796875	-860.0162353515627	-298.2821655273438	1083.522338867188	-621.0778808593751	-505.2703857421876	1154.673583984375	-712.0664062500001	-513.8657226562501	1125.637573242188	-742.2120971679689	-503.1874084472657	1119.878540039063	-685.9933471679689	-215.152328491211	900.8966064453127	-933.2994384765627	-146.4173126220703	854.885681152344	-919.7209472656252	-116.4632797241211	876.5325927734377	-885.034362792969	-136.7751770019532	795.776550292969	-918.102966308594	-74.48352050781251	716.7348022460939	-906.0330810546877	-72.01765441894533	705.9265747070314	-778.7800292968752	48.88814926147462	642.4685058593751	-860.9636840820315	40.54832839965821	588.4771118164064	-925.586120605469	72.39382171630861	602.1737670898439	-896.6785888671877	122.9106979370117	538.4983520507814	-872.6982421875002	205.8908233642579	349.9234619140626	-899.2359008789065	205.9141845703126	368.6136779785157	-807.4104614257815	179.8602447509766	277.4418945312501	-855.1400146484377	348.7166442871094	414.1482543945314	-810.6812133789065	354.7502136230469	424.6086425781251	-856.9341430664065	337.5844726562501	381.1793212890626	-916.0457153320315	-377.3453063964844	857.8911743164065	-571.7713012695314	-334.5462646484376	807.313903808594	-575.6957397460939	-302.1684875488282	811.142517089844	-579.1415405273439	-355.4106140136719	727.9968872070314	-596.3930664062501	-333.7480773925782	552.0123291015626	-628.4498901367189	-304.2425842285157	552.1837768554689	-761.9464721679689	-291.0606079101563	354.6869812011719	-730.7313232421876	-326.3056335449219	273.8113708496094	-666.1404418945314	-293.7929382324219	268.3328552246094	-701.6491699218751	-307.5729064941407	226.4083404541016	-738.1091308593751	-369.2387390136719	121.6746444702149	-699.3664550781251	-342.5505981445313	141.4461517333985	-788.4693603515627	-437.5213012695314	101.3754806518555	-757.2586669921876	-227.7383117675782	56.62597656250001	-772.6394653320315	-220.7091979980469	61.16007614135744	-720.2034301757814	-270.1247558593751	33.01536560058594	-666.7192382812501	
317	1.58	-328.1546020507813	1804.029663085938	-627.8317260742189	-481.3106079101564	1739.051635742188	-697.0390625000001	-321.5260314941407	1813.447875976563	-770.0319824218752	-490.5478515625001	1595.09033203125	-717.3687133789064	-501.7524414062501	1283.120727539063	-710.3728027343751	-325.5298767089844	1556.2568359375	-701.5601196289064	-338.5829772949219	1608.395629882813	-855.272644042969	-187.76708984375	1530.782592773438	-966.128356933594	-160.7205047607422	1566.398681640625	-942.1737060546877	-118.3042449951172	1527.441772460938	-958.8624267578127	-43.6666374206543	1527.560791015625	-943.748474121094	-42.53939437866212	1472.2265625	-907.753356933594	nan	nan	nan	225.8431549072266	1545.963745117188	-923.4841918945315	324.0139770507813	1545.526123046875	-846.1160278320315	-355.5064086914063	1607.049682617188	-547.3739013671876	-203.8554077148438	1512.742919921875	-435.4453125000001	-177.9406127929688	1550.267944335938	-458.7543029785157	-133.9843444824219	1519.217529296875	-434.386199951172	-66.68597412109376	1507.892333984375	-440.2591552734376	-59.72275924682619	1448.4599609375	-489.9638671875001	205.2827301025391	1529.310424804688	-525.5765991210939	203.1849365234376	1541.911865234375	-444.5832824707032	297.3398742675782	1553.678100585938	-511.1472473144532	-314.9234924316407	1114.140869140625	-860.0222778320315	-298.6036376953126	1083.50537109375	-620.9705200195314	-506.2309875488282	1154.614379882813	-711.8603515625001	-514.5811767578126	1125.478149414063	-742.0916137695314	-503.5750122070314	1119.705078125	-685.9006958007814	-215.5600738525391	900.8999633789065	-933.5039672851565	-147.2381439208985	854.615417480469	-919.765563964844	-117.3595428466797	876.1967773437502	-885.0154418945315	-137.2687530517578	795.6087646484377	-918.1526489257815	-75.14674377441408	716.5525512695314	-906.1270141601565	-72.94575500488283	705.5696411132814	-778.6655273437502	48.53195953369142	642.3843383789064	-861.2837524414065	39.97058868408204	588.2892456054689	-925.8469848632815	71.9099807739258	602.0863647460939	-896.989929199219	122.5986633300782	538.5248413085939	-872.9346923828127	205.3694915771485	349.7656555175782	-899.4630126953127	205.6534423828126	368.5053710937501	-807.788024902344	179.462142944336	277.2848205566407	-855.435485839844	348.4992675781251	414.1560363769532	-811.2188720703127	354.2303771972657	424.4712219238282	-857.3186035156252	337.1533813476563	381.1979675292969	-916.3642578125002	-377.6399841308594	857.6423339843752	-571.7474365234376	-334.7821044921876	807.062194824219	-575.6395874023439	-302.3178405761719	810.9336547851565	-579.0391235351564	-355.4272155761719	727.8015747070314	-596.3181762695314	-333.3918762207032	551.7841796875001	-628.4646606445314	-304.2985229492188	551.7317504882814	-762.3291015625001	-290.8388061523438	354.5985412597657	-730.6488647460939	-326.1927185058594	273.7162475585938	-666.1177978515626	-293.7183532714844	268.1604919433594	-701.5846557617189	-307.4272155761719	226.2950439453126	-738.0980834960939	-369.2294006347657	121.6290664672852	-699.3547973632814	-342.5660400390626	141.4112396240235	-788.4810180664065	-437.5224914550782	101.376937866211	-757.2904052734376	-227.6628570556641	56.68280410766603	-772.6504516601565	-220.6700439453126	61.17129516601564	-720.2601318359376	-270.0825805664063	33.02167129516602	-666.7432250976564	
318	1.585	-328.1287536621094	1803.942626953125	-627.6711425781251	-481.3760375976564	1738.73583984375	-696.9064331054689	-321.4435119628907	1813.25341796875	-769.8933715820315	-490.429656982422	1595.068237304688	-717.2861938476564	-502.0025634765626	1283.12060546875	-710.2901000976564	-325.5296325683594	1556.012573242188	-701.4497070312501	-338.5469055175782	1608.101928710938	-855.197448730469	-187.7164764404297	1530.772827148438	-965.9582519531252	-160.6395568847657	1566.279663085938	-941.9802856445315	-118.273307800293	1527.470581054688	-958.706237792969	-43.62202072143555	1527.441528320313	-943.6340332031252	-42.4919662475586	1472.212036132813	-907.5132446289065	nan	nan	nan	225.9893341064454	1545.985107421875	-923.344909667969	324.1369934082032	1545.664428710938	-845.963317871094	-355.4591369628907	1606.815307617188	-547.4078979492189	-203.747055053711	1512.630493164063	-435.306365966797	-177.8883972167969	1550.193115234375	-458.5992736816407	-133.8599700927735	1518.968627929688	-434.3989257812501	-66.55613708496095	1507.70068359375	-440.1907043457032	-59.50433349609376	1448.339721679688	-489.9750976562501	205.7576599121094	1529.33203125	-525.5212402343751	203.2129516601563	1541.704833984375	-444.5177307128907	297.4766235351563	1553.675537109375	-510.9950256347657	-315.5705871582032	1113.959594726563	-859.9946289062502	-299.3231506347657	1083.24462890625	-620.8556518554689	-506.665252685547	1154.5791015625	-711.7723999023439	-515.1981201171876	1125.312866210938	-741.9491577148439	-504.1294555664064	1119.5703125	-685.7331542968751	-216.1828308105469	900.7871704101565	-933.6169433593752	-147.9158325195313	854.3828735351565	-919.8339843750002	-117.9806289672852	875.898376464844	-885.1018066406252	-137.3466033935547	795.8128662109377	-918.591491699219	-75.68231201171876	716.4129638671876	-906.274108886719	-73.5941619873047	705.5048828125001	-778.6987915039065	47.81071472167969	642.0777587890626	-861.358337402344	39.34297943115235	588.1145629882814	-926.0469970703127	71.48815917968751	602.0111694335939	-897.2274169921877	122.2234420776367	538.5452880859376	-873.130065917969	204.9147033691407	349.6575622558594	-899.8338623046877	205.0201568603516	368.3183288574219	-808.1270141601565	178.96142578125	277.2030944824219	-855.626159667969	348.2515869140626	414.3188781738282	-811.733825683594	353.9401855468751	424.4869995117189	-857.7603759765627	336.6441040039063	381.1813049316407	-916.8418579101565	-377.7403869628907	857.3023071289065	-571.6804199218751	-334.7525329589844	806.7503662109377	-575.7346801757814	-302.3334655761719	810.7030029296877	-579.0787353515626	-355.2856140136719	727.2979125976564	-596.3192749023439	-333.1338806152344	551.6035156250001	-628.4838256835939	-303.8811950683594	551.6433715820314	-762.3122558593751	-290.6018371582032	354.5984497070313	-730.6506347656251	-325.8555297851563	273.6200561523438	-666.1723022460939	-293.6530456542969	268.2010498046876	-701.6034545898439	-307.2651977539063	226.5325775146485	-738.1488037109376	-369.2003479003907	121.6045379638672	-699.3912353515626	-342.5509948730469	141.3977355957032	-788.5144042968752	-437.567352294922	101.3511276245117	-757.2653808593751	-227.6364440917969	56.78147888183595	-772.6738891601565	-220.6878204345704	61.19070053100587	-720.2763671875001	-270.0975952148438	33.04905700683594	-666.7209472656251	
319	1.59	-328.1050109863282	1803.90771484375	-627.5501708984376	-481.4279174804689	1738.3310546875	-696.7849731445314	-321.4633789062501	1813.064697265625	-769.8240356445315	-490.3038024902345	1595.005981445313	-717.2458496093751	-502.270477294922	1283.062866210938	-710.1846923828126	-325.4274291992188	1555.777954101563	-701.3873291015626	-338.2655639648438	1607.983154296875	-855.041687011719	-187.4738922119141	1530.678588867188	-965.7693481445315	-160.5587463378907	1566.193603515625	-941.7332763671877	-118.2227859497071	1527.39892578125	-958.529479980469	-43.4883155822754	1527.351196289063	-943.4931640625002	-42.20178985595704	1472.215698242188	-907.4650878906252	nan	nan	nan	226.1638793945313	1546.037963867188	-923.205749511719	324.3444213867188	1545.748413085938	-845.7529296875002	-355.2093811035157	1606.615356445313	-547.3744506835939	-203.3915252685547	1512.551879882813	-435.2642517089845	-177.8477325439453	1549.93017578125	-458.5018615722657	-133.6282958984375	1518.9287109375	-434.2894592285157	-66.26611328125001	1507.4423828125	-440.1614379882814	-59.419979095459	1448.187377929688	-489.8849182128907	205.5622100830079	1529.072143554688	-525.4083862304689	203.3983306884766	1541.611572265625	-444.4604797363282	297.5773010253907	1553.639038085938	-510.870574951172	-316.1519165039063	1113.742309570313	-859.9636230468752	-300.0814208984376	1083.075805664063	-620.5568237304689	-506.9744567871095	1154.472412109375	-711.7604370117189	-515.7369995117189	1125.152465820313	-741.8614501953126	-504.6773681640626	1119.337524414063	-685.5969238281251	-217.0899200439454	900.3812255859377	-933.4883422851565	-148.6328430175782	854.1455078125002	-919.9675292968752	-118.1800994873047	875.894470214844	-885.4842529296877	-138.0648956298828	795.4085083007815	-918.7327270507815	-76.41762542724611	716.2169799804689	-906.4280395507815	-73.91438293457033	705.4033203125001	-778.9204101562502	47.04531478881837	641.8936157226564	-861.5965576171877	38.92552947998048	588.0565795898439	-926.181579589844	70.76641082763673	601.8964843750001	-897.4132080078127	121.5114822387696	538.3970336914064	-873.4146728515627	204.5011291503907	349.6351623535157	-900.1273193359377	204.5985717773438	368.2255249023438	-808.3988037109377	178.3781127929688	277.3247070312501	-855.7993774414065	347.8326721191407	414.1925659179689	-812.112487792969	353.5464477539063	424.4112243652345	-858.0352783203127	336.2160034179688	381.0748291015626	-917.4448852539065	-377.9321289062501	856.938903808594	-571.5248413085939	-334.8018798828126	806.3018798828127	-575.6789550781251	-302.4018554687501	810.4151000976565	-579.0646972656251	-355.3340148925782	726.8889160156251	-596.2348632812501	-332.9624938964844	551.5339965820314	-628.5188598632814	-303.5435180664063	551.6285400390626	-762.2583618164064	-290.4311218261719	354.4911193847657	-730.6032714843751	-325.5559692382813	273.4815979003907	-666.2257080078126	-293.3165283203126	268.1153564453126	-701.6568603515626	-307.1956176757813	226.3945312500001	-738.1611938476564	-369.2157287597657	121.6001281738282	-699.3478393554689	-342.5577697753907	141.3640747070313	-788.535583496094	-437.5397949218751	101.3359909057617	-757.2325439453126	-227.6827239990235	56.69731903076173	-772.7239379882815	-220.6068267822266	61.2590675354004	-720.0115356445314	-270.1822204589844	32.71273040771485	-667.1043090820314	
